<svg width="69" height="69" viewBox="0 0 69 69" fill="none" xmlns="http://www.w3.org/2000/svg">
<g clip-path="url(#clip0_1_5)">
<path d="M66.8029 29.1906L56.8475 19.2347C55.486 17.8731 53.7283 17.1527 51.9454 17.0555C51.8481 15.2725 51.1278 13.5147 49.7699 12.1532L39.8145 2.19722C36.8862 -0.731207 32.121 -0.731207 29.1927 2.19722L19.2373 12.1532C17.8794 13.5147 17.1554 15.2725 17.0618 17.0555C15.2753 17.1491 13.5176 17.8731 12.1597 19.2311L2.20431 29.187C-0.723967 32.1155 -0.723967 36.8773 2.20431 39.8058L12.1597 49.7617C13.5212 51.1232 15.2789 51.8437 17.0618 51.9409C17.1591 53.7275 17.8794 55.4817 19.2373 56.8432L29.1927 66.7992C32.121 69.7276 36.8862 69.7276 39.8145 66.7992L49.7699 56.8432C51.1278 55.4817 51.8517 53.7239 51.9454 51.9409C53.7283 51.8473 55.4896 51.1233 56.8475 49.7653L66.8029 39.8094C69.7312 36.8809 69.7312 32.1191 66.8029 29.1906ZM63.2623 36.2686L53.3069 46.2245C52.8369 46.6933 52.2003 46.9565 51.5366 46.9565C50.8729 46.9565 50.2362 46.6933 49.7663 46.2245L46.559 43.017C45.5812 42.0392 43.9959 42.0392 43.0182 43.017V43.017C42.0405 43.9948 42.0405 45.5799 43.0182 46.5576L46.2257 49.7653C46.6944 50.2353 46.9576 50.8719 46.9576 51.5357C46.9576 52.1994 46.6944 52.8361 46.2257 53.3061L36.2703 63.262C35.8003 63.7307 35.1637 63.994 34.5 63.994C33.8363 63.994 33.1996 63.7307 32.7297 63.262L22.7743 53.3061C22.3056 52.8361 22.0424 52.1994 22.0424 51.5357C22.0424 50.8719 22.3056 50.2353 22.7743 49.7653L25.9818 46.5576C26.9595 45.5799 26.9595 43.9948 25.9818 43.017V43.017C25.0041 42.0392 23.4188 42.0392 22.441 43.017L19.2337 46.2245C18.7638 46.6933 18.1271 46.9565 17.4634 46.9565C16.7997 46.9565 16.1631 46.6933 15.6931 46.2245L5.73769 36.2686C5.26899 35.7986 5.00577 35.162 5.00577 34.4982C5.00577 33.8344 5.26899 33.1978 5.73769 32.7278L15.6931 22.7719C16.1631 22.3031 16.7997 22.0399 17.4634 22.0399C18.1271 22.0399 18.7638 22.3031 19.2337 22.7719L22.441 25.9794C23.4188 26.9572 25.0041 26.9572 25.9818 25.9794V25.9794C26.9595 25.0016 26.9595 23.4165 25.9818 22.4388L22.7743 19.2311C22.3056 18.7611 22.0424 18.1245 22.0424 17.4607C22.0424 16.797 22.3056 16.1603 22.7743 15.6903L32.7297 5.73439C33.1996 5.26566 33.8363 5.00243 34.5 5.00243C35.1637 5.00243 35.8003 5.26566 36.2703 5.73439L46.2257 15.6903C46.6944 16.1603 46.9576 16.797 46.9576 17.4607C46.9576 18.1245 46.6944 18.7611 46.2257 19.2311L43.0182 22.4388C42.0405 23.4165 42.0405 25.0016 43.0182 25.9794V25.9794C43.9959 26.9572 45.5812 26.9572 46.559 25.9794L49.7663 22.7719C50.2362 22.3031 50.8729 22.0399 51.5366 22.0399C52.2003 22.0399 52.8369 22.3031 53.3069 22.7719L63.2623 32.7278C63.731 33.1978 63.9942 33.8344 63.9942 34.4982C63.9942 35.162 63.731 35.7986 63.2623 36.2686Z" fill="#1D2B53"/>
<path d="M40.362 28.4163C39.3852 27.4394 37.8014 27.439 36.8241 28.4155L34.4982 30.7395L32.1755 28.4167C31.1984 27.4395 29.6143 27.4391 28.6367 28.4158V28.4158C27.6587 29.3928 27.658 30.9776 28.635 31.9555L30.9576 34.2803L28.6358 36.6023C27.6583 37.5798 27.6583 39.1646 28.6358 40.1421V40.1421C29.6136 41.1199 31.1991 41.1196 32.1765 40.1413L34.4982 37.8174L36.8231 40.1424C37.8007 41.1201 39.3858 41.1197 40.3629 40.1415V40.1415C41.3393 39.1642 41.3389 37.5805 40.362 36.6037L38.0388 34.2803L40.3628 31.9541C41.3392 30.9768 41.3388 29.3932 40.362 28.4163V28.4163Z" fill="#FF004D"/>
</g>
<defs>
<clipPath id="clip0_1_5">
<rect width="69" height="69" fill="white"/>
</clipPath>
</defs>
</svg>
