<svg xmlns="http://www.w3.org/2000/svg" viewBox="0 0 191.57 191.56" xmlns:v="https://vecta.io/nano"><path d="M185.47 81.04L157.83 53.4c-3.78-3.78-8.66-5.78-13.61-6.05-.27-4.95-2.27-9.83-6.04-13.61L110.54 6.1c-8.13-8.13-21.36-8.13-29.49 0L53.41 33.74c-3.77 3.78-5.78 8.66-6.04 13.61-4.96.26-9.84 2.27-13.61 6.04L6.12 81.03c-8.13 8.13-8.13 21.35 0 29.48l27.64 27.64c3.78 3.78 8.66 5.78 13.61 6.05.27 4.96 2.27 9.83 6.04 13.61l27.64 27.64c8.13 8.13 21.36 8.13 29.49 0l27.64-27.64c3.77-3.78 5.78-8.66 6.04-13.61 4.95-.26 9.84-2.27 13.61-6.04l27.64-27.64c8.13-8.13 8.13-21.35 0-29.48zm-9.83 19.65L148 128.33a6.96 6.96 0 0 1-9.83 0l-13.82-13.82-9.83 9.83 13.82 13.82a6.96 6.96 0 0 1 0 9.83l-27.64 27.64a6.96 6.96 0 0 1-9.83 0l-27.64-27.64a6.96 6.96 0 0 1 0-9.83l13.82-13.82-9.83-9.83-13.82 13.82a6.96 6.96 0 0 1-9.83 0l-27.64-27.64a6.96 6.96 0 0 1 0-9.83l27.64-27.64a6.96 6.96 0 0 1 9.83 0l13.82 13.82 9.83-9.83-13.82-13.82a6.96 6.96 0 0 1 0-9.83l27.64-27.64a6.96 6.96 0 0 1 9.83 0l27.64 27.64a6.96 6.96 0 0 1 0 9.83l-13.82 13.82 9.83 9.83 13.82-13.82a6.96 6.96 0 0 1 9.83 0l27.64 27.64a6.96 6.96 0 0 1 0 9.83z" fill="#ebf1ff"/><path d="M107.15 73.98L95.78 85.34 84.42 73.98l-9.83 9.82 11.36 11.37-11.36 11.36 9.83 9.83 11.36-11.37 11.37 11.37 9.82-9.83-11.36-11.36 11.36-11.37-9.82-9.82z" fill="#ff004d"/></svg>